<svg version="1.1" xmlns="http://www.w3.org/2000/svg" xmlns:xlink="http://www.w3.org/1999/xlink" x="0" y="0" viewBox="0 0 256 256" enable-background="new 0 0 256 256" xml:space="preserve">
  <g>
    <g>
      <path fill="currentColor" d="M42.8,43.4v33.4h32.8V43.4H42.8L42.8,43.4z M10,10v33.4h32.8V10H10L10,10z M75.6,76.8v33.4h32.8V76.8H75.6L75.6,76.8z M42.8,210.5h32.8v-33.4H42.8V210.5L42.8,210.5z M75.6,177.1h32.8v-33.4H75.6V177.1L75.6,177.1z M10,246h32.8v-35.5H10V246L10,246z M141.1,110.3h-32.8v33.4h32.8V110.3L141.1,110.3z M180.5,76.8v33.4h32.8V76.8H180.5L180.5,76.8z M147.7,43.4v33.4h32.8V43.4H147.7L147.7,43.4z M213.2,110.3v33.4H246v-33.4H213.2L213.2,110.3z M180.5,177.1h32.8v-33.4h-32.8V177.1L180.5,177.1z M147.7,210.5h32.8v-33.4h-32.8V210.5L147.7,210.5z M114.9,10v33.4h32.8V10H114.9L114.9,10z M114.9,246h32.8v-35.5h-32.8V246L114.9,246z"/>
    </g>
  </g>
</svg>